<svg width="1200" height="720" viewBox="0 0 1200 720" fill="none" xmlns="http://www.w3.org/2000/svg">
  <rect width="1200" height="720" rx="32" fill="#F5F5F4"/>
  <rect x="112" y="92" width="976" height="536" rx="28" fill="#FFFFFF" stroke="#1C1917" stroke-width="6"/>
  <rect x="112" y="92" width="976" height="96" rx="28" fill="#E7E5E4"/>
  <text x="160" y="149" fill="#1C1917" font-family="Arial, sans-serif" font-size="36" font-weight="700">MY HABITS</text>

  <rect x="164" y="242" width="872" height="144" rx="24" fill="#FAFAF9" stroke="#D6D3D1" stroke-width="4"/>
  <circle cx="228" cy="314" r="24" fill="#A8C9B8"/>
  <path d="M216 314L224 322L241 305" stroke="#1C1917" stroke-width="6" stroke-linecap="round" stroke-linejoin="round"/>
  <text x="274" y="305" fill="#1C1917" font-family="Arial, sans-serif" font-size="34" font-weight="700">Read 10 pages</text>
  <text x="274" y="346" fill="#78716C" font-family="Arial, sans-serif" font-size="22" font-weight="700">Daily habit sample</text>

  <circle cx="962" cy="292" r="6" fill="#57534E"/>
  <circle cx="962" cy="314" r="6" fill="#57534E"/>
  <circle cx="962" cy="336" r="6" fill="#57534E"/>

  <rect x="828" y="224" width="206" height="182" rx="22" fill="#FFFFFF" stroke="#1C1917" stroke-width="5"/>
  <rect x="846" y="246" width="170" height="54" rx="14" fill="#F5F5F4"/>
  <text x="878" y="281" fill="#1C1917" font-family="Arial, sans-serif" font-size="24" font-weight="700">Edit habit</text>
  <rect x="846" y="312" width="170" height="54" rx="14" fill="#FEF2F2"/>
  <text x="867" y="347" fill="#B91C1C" font-family="Arial, sans-serif" font-size="24" font-weight="700">Archive habit</text>

  <text x="164" y="492" fill="#57534E" font-family="Arial, sans-serif" font-size="24" font-weight="700">Open the 3-dot menu on any habit to edit or archive it.</text>
  <text x="164" y="532" fill="#A8A29E" font-family="Arial, sans-serif" font-size="20" font-weight="700">Archive keeps history while removing the habit from your active list.</text>
</svg>
